G04 Layer_Color=65535*
%FSLAX25Y25*%
%MOIN*%
G70*
G01*
G75*
%ADD10C,0.00787*%
%ADD11C,0.00984*%
%ADD12C,0.00394*%
%ADD13C,0.02362*%
%ADD14C,0.01200*%
%ADD15C,0.01000*%
%ADD16C,0.00800*%
%ADD17C,0.00600*%
G36*
X-5051Y40168D02*
X-5063Y40136D01*
X-6458D01*
X-7000Y41037D01*
X-4782D01*
X-5051Y40168D01*
D02*
G37*
G36*
X-4431Y40085D02*
Y38167D01*
X-4782Y37384D01*
X-5075Y38167D01*
X-5082Y40085D01*
X-5063Y40136D01*
X-5060D01*
X-5051Y40168D01*
X-4782Y40868D01*
X-4431Y40085D01*
D02*
G37*
G36*
X-3098Y40136D02*
X-4445D01*
X-4767Y41037D01*
X-2549D01*
X-3098Y40136D01*
D02*
G37*
G36*
X-4782Y46022D02*
X-6363D01*
X-6649Y46483D01*
X-6370Y46922D01*
X-5060D01*
X-4782Y46022D01*
D02*
G37*
G36*
X-6883Y41842D02*
X-7161D01*
Y45224D01*
X-6883D01*
Y41842D01*
D02*
G37*
G36*
X-4782Y35561D02*
X-7000D01*
X-6458Y36462D01*
X-5060D01*
X-4782Y35561D01*
D02*
G37*
G36*
X-3201Y33988D02*
X-4453D01*
X-4767Y34888D01*
X-2637D01*
X-3201Y33988D01*
D02*
G37*
G36*
X-2549Y35561D02*
X-4767D01*
X-4453Y36462D01*
X-3098D01*
X-2549Y35561D01*
D02*
G37*
G36*
Y37208D02*
X-4767D01*
X-4453Y38109D01*
X-3098D01*
X-2549Y37208D01*
D02*
G37*
G36*
X-4782D02*
X-7000D01*
X-6458Y38109D01*
X-5060D01*
X-4782Y37208D01*
D02*
G37*
G36*
Y50597D02*
X-6363D01*
X-6649Y51058D01*
X-6370Y51497D01*
X-5060D01*
X-4782Y50597D01*
D02*
G37*
G36*
X-3201Y48950D02*
X-4445D01*
X-4767Y49850D01*
X-2637D01*
X-3201Y48950D01*
D02*
G37*
G36*
X-2549Y53481D02*
Y50597D01*
X-3186Y51490D01*
Y53481D01*
X-2879Y53920D01*
X-2549Y53481D01*
D02*
G37*
G36*
X-6363Y53539D02*
Y51556D01*
X-6678Y51109D01*
X-7000Y51548D01*
Y54425D01*
X-6363Y53539D01*
D02*
G37*
G36*
X-4431Y53473D02*
Y51556D01*
X-4782Y50772D01*
X-5075Y51556D01*
X-5068Y53473D01*
X-4782Y54249D01*
X-4431Y53473D01*
D02*
G37*
G36*
Y48898D02*
Y46981D01*
X-4782Y46197D01*
X-5075Y46981D01*
X-5082Y48898D01*
X-5063Y48950D01*
X-5060D01*
X-5051Y48981D01*
X-4782Y49682D01*
X-4431Y48898D01*
D02*
G37*
G36*
X-2901Y46483D02*
X-3186Y46022D01*
X-4767D01*
X-4453Y46922D01*
X-3186D01*
X-2901Y46483D01*
D02*
G37*
G36*
X-2549Y46973D02*
X-2879Y46527D01*
X-3186Y46973D01*
Y48906D01*
X-2549Y49726D01*
Y46973D01*
D02*
G37*
G36*
X-5051Y48981D02*
X-5063Y48950D01*
X-6363D01*
X-6912Y49850D01*
X-4782D01*
X-5051Y48981D01*
D02*
G37*
G36*
X-6363Y48906D02*
Y46981D01*
X-6678Y46534D01*
X-7000Y46973D01*
Y49747D01*
X-6363Y48906D01*
D02*
G37*
G36*
X-5060Y33988D02*
X-6363D01*
X-6912Y34888D01*
X-4782D01*
X-5060Y33988D01*
D02*
G37*
G36*
X-6363Y15966D02*
Y14041D01*
X-6678Y13594D01*
X-7000Y14033D01*
Y15966D01*
X-6678Y16405D01*
X-6363Y15966D01*
D02*
G37*
G36*
X-2901Y13543D02*
X-3186Y13082D01*
X-4767D01*
X-4453Y13982D01*
X-3186D01*
X-2901Y13543D01*
D02*
G37*
G36*
X-2549Y15966D02*
Y14033D01*
X-2879Y13594D01*
X-3186Y14033D01*
Y15966D01*
X-2879Y16405D01*
X-2549Y15966D01*
D02*
G37*
G36*
X-2901Y16471D02*
X-3186Y16010D01*
X-4445D01*
X-4767Y16910D01*
X-3186D01*
X-2901Y16471D01*
D02*
G37*
G36*
X-5060Y16010D02*
X-6370D01*
X-6656Y16471D01*
X-6370Y16910D01*
X-4782D01*
X-5060Y16010D01*
D02*
G37*
G36*
X-2901Y8968D02*
X-3186Y8507D01*
X-4767D01*
X-4453Y9407D01*
X-3186D01*
X-2901Y8968D01*
D02*
G37*
G36*
X-6363Y11391D02*
Y9297D01*
X-7000Y8507D01*
Y11391D01*
X-6678Y11830D01*
X-6363Y11391D01*
D02*
G37*
G36*
X-5052Y11462D02*
X-5062Y11435D01*
X-5060D01*
X-5052Y11462D01*
X-4782Y12159D01*
X-4431Y11383D01*
Y9466D01*
X-4782Y8682D01*
X-5068Y9466D01*
X-5082Y11383D01*
X-5062Y11435D01*
X-6363D01*
X-6649Y11896D01*
X-6370Y12335D01*
X-4782D01*
X-5052Y11462D01*
D02*
G37*
G36*
X-4782Y13082D02*
X-6363D01*
X-6649Y13543D01*
X-6370Y13982D01*
X-5060D01*
X-4782Y13082D01*
D02*
G37*
G36*
X-2549Y11391D02*
Y9458D01*
X-2879Y9019D01*
X-3186Y9458D01*
Y12335D01*
X-2549Y11391D01*
D02*
G37*
G36*
X-4782Y31060D02*
X-6363D01*
X-6649Y31521D01*
X-6370Y31960D01*
X-5060D01*
X-4782Y31060D01*
D02*
G37*
G36*
X-6883Y26880D02*
X-7161D01*
Y30262D01*
X-6883D01*
Y26880D01*
D02*
G37*
G36*
X-2901Y31521D02*
X-3186Y31060D01*
X-4767D01*
X-4453Y31960D01*
X-3186D01*
X-2901Y31521D01*
D02*
G37*
G36*
X-2549Y32011D02*
X-2879Y31572D01*
X-3186Y32011D01*
Y33944D01*
X-2549Y34771D01*
Y32011D01*
D02*
G37*
G36*
X-6363Y33944D02*
Y32019D01*
X-6678Y31572D01*
X-7000Y32011D01*
Y34785D01*
X-6363Y33944D01*
D02*
G37*
G36*
X-2549Y19121D02*
X-4767D01*
X-4453Y20021D01*
X-3098D01*
X-2549Y19121D01*
D02*
G37*
G36*
X-4782D02*
X-7000D01*
X-6458Y20021D01*
X-5060D01*
X-4782Y19121D01*
D02*
G37*
G36*
X-4907Y23352D02*
X-4744Y22314D01*
X-4453Y23147D01*
X-3186D01*
X-2630Y22246D01*
X-4733D01*
X-4731Y22232D01*
X-4748Y22246D01*
X-4767D01*
X-4763Y22258D01*
X-7000Y24120D01*
X-5836Y24127D01*
X-4907Y23352D01*
D02*
G37*
G36*
X-3186Y25174D02*
X-4445D01*
X-4738Y25992D01*
X-4724Y26075D01*
X-2630D01*
X-3186Y25174D01*
D02*
G37*
G36*
X-4757Y26047D02*
X-4738Y25992D01*
X-4914Y24969D01*
X-5843Y24193D01*
X-7000Y24201D01*
X-4757Y26047D01*
X-4767Y26075D01*
X-4724D01*
X-4757Y26047D01*
D02*
G37*
G36*
X-2901Y53986D02*
X-3186Y53525D01*
X-4445D01*
X-4767Y54425D01*
X-3186D01*
X-2901Y53986D01*
D02*
G37*
G36*
X1450Y44406D02*
X1438Y44375D01*
X137D01*
X-156Y44836D01*
X129Y45275D01*
X1718D01*
X1450Y44406D01*
D02*
G37*
G36*
X137Y44331D02*
Y42406D01*
X-178Y41959D01*
X-500Y42398D01*
Y44331D01*
X-178Y44770D01*
X137Y44331D01*
D02*
G37*
G36*
X3599Y44836D02*
X3314Y44375D01*
X2055D01*
X1733Y45275D01*
X3314D01*
X3599Y44836D01*
D02*
G37*
G36*
X3951Y47486D02*
X1733D01*
X2047Y48386D01*
X3402D01*
X3951Y47486D01*
D02*
G37*
G36*
X1718D02*
X-500D01*
X42Y48386D01*
X1440D01*
X1718Y47486D01*
D02*
G37*
G36*
X3599Y40261D02*
X3314Y39800D01*
X2055D01*
X1733Y40700D01*
X3314D01*
X3599Y40261D01*
D02*
G37*
G36*
X1440Y39800D02*
X129D01*
X-156Y40261D01*
X129Y40700D01*
X1718D01*
X1440Y39800D01*
D02*
G37*
G36*
X1718Y41447D02*
X137D01*
X-149Y41908D01*
X129Y42347D01*
X1440D01*
X1718Y41447D01*
D02*
G37*
G36*
X2069Y44323D02*
Y42406D01*
X1718Y41622D01*
X1425Y42406D01*
X1418Y44323D01*
X1438Y44375D01*
X1440D01*
X1450Y44406D01*
X1718Y45107D01*
X2069Y44323D01*
D02*
G37*
G36*
X3951Y44331D02*
Y41615D01*
X3314Y42398D01*
Y44331D01*
X3621Y44770D01*
X3951Y44331D01*
D02*
G37*
G36*
X137Y58056D02*
Y55962D01*
X-500Y55172D01*
Y58056D01*
X-178Y58495D01*
X137Y58056D01*
D02*
G37*
G36*
X3599Y53986D02*
X3314Y53525D01*
X2055D01*
X1733Y54425D01*
X3314D01*
X3599Y53986D01*
D02*
G37*
G36*
Y55633D02*
X3314Y55172D01*
X1733D01*
X2047Y56072D01*
X3314D01*
X3599Y55633D01*
D02*
G37*
G36*
X3951Y58056D02*
Y56123D01*
X3621Y55684D01*
X3314Y56123D01*
Y59000D01*
X3951Y58056D01*
D02*
G37*
G36*
X1448Y58127D02*
X1438Y58100D01*
X1440D01*
X1448Y58127D01*
X1718Y58824D01*
X2069Y58048D01*
Y56131D01*
X1718Y55347D01*
X1433Y56131D01*
X1418Y58048D01*
X1438Y58100D01*
X137D01*
X-149Y58561D01*
X129Y59000D01*
X1718D01*
X1448Y58127D01*
D02*
G37*
G36*
X3599Y51058D02*
X3314Y50597D01*
X1733D01*
X2047Y51497D01*
X3314D01*
X3599Y51058D01*
D02*
G37*
G36*
X1718Y50597D02*
X137D01*
X-149Y51058D01*
X129Y51497D01*
X1440D01*
X1718Y50597D01*
D02*
G37*
G36*
X137Y53481D02*
Y51556D01*
X-178Y51109D01*
X-500Y51548D01*
Y53481D01*
X-178Y53920D01*
X137Y53481D01*
D02*
G37*
G36*
X1440Y53525D02*
X129D01*
X-156Y53986D01*
X129Y54425D01*
X1718D01*
X1440Y53525D01*
D02*
G37*
G36*
X3951Y53481D02*
Y51548D01*
X3621Y51109D01*
X3314Y51548D01*
Y53481D01*
X3621Y53920D01*
X3951Y53481D01*
D02*
G37*
G36*
Y39756D02*
Y37823D01*
X3621Y37384D01*
X3314Y37823D01*
Y39756D01*
X3621Y40195D01*
X3951Y39756D01*
D02*
G37*
G36*
X3870Y23659D02*
X1733D01*
X2047Y24559D01*
X3314D01*
X3870Y23659D01*
D02*
G37*
G36*
X1718D02*
X-500D01*
X42Y24559D01*
X1440D01*
X1718Y23659D01*
D02*
G37*
G36*
X3951Y23791D02*
X3314Y24633D01*
Y26558D01*
X3951Y27363D01*
Y23791D01*
D02*
G37*
G36*
Y29186D02*
X1733D01*
X2047Y30086D01*
X3402D01*
X3951Y29186D01*
D02*
G37*
G36*
X1718D02*
X-500D01*
X42Y30086D01*
X1440D01*
X1718Y29186D01*
D02*
G37*
G36*
X-2549Y55172D02*
X-4767D01*
X-4453Y56072D01*
X-3077D01*
X-2549Y55172D01*
D02*
G37*
G36*
X-4782D02*
X-6363D01*
X-6649Y55633D01*
X-6370Y56072D01*
X-5060D01*
X-4782Y55172D01*
D02*
G37*
G36*
X-6363Y58056D02*
Y56131D01*
X-6678Y55684D01*
X-7000Y56123D01*
Y58056D01*
X-6678Y58495D01*
X-6363Y58056D01*
D02*
G37*
G36*
X-3077Y58100D02*
X-4445D01*
X-4767Y59000D01*
X-2549D01*
X-3077Y58100D01*
D02*
G37*
G36*
X-5060D02*
X-6370D01*
X-6656Y58561D01*
X-6370Y59000D01*
X-4782D01*
X-5060Y58100D01*
D02*
G37*
G36*
X1718Y32297D02*
X137D01*
X-149Y32758D01*
X129Y33197D01*
X1440D01*
X1718Y32297D01*
D02*
G37*
G36*
X3599Y35686D02*
X3314Y35225D01*
X2055D01*
X1733Y36125D01*
X3314D01*
X3599Y35686D01*
D02*
G37*
G36*
X1450Y35256D02*
X1438Y35225D01*
X137D01*
X-156Y35686D01*
X129Y36125D01*
X1718D01*
X1450Y35256D01*
D02*
G37*
G36*
X1718Y36872D02*
X137D01*
X-149Y37333D01*
X129Y37772D01*
X1440D01*
X1718Y36872D01*
D02*
G37*
G36*
X137Y39756D02*
Y37831D01*
X-178Y37384D01*
X-500Y37823D01*
Y39756D01*
X-178Y40195D01*
X137Y39756D01*
D02*
G37*
G36*
X3599Y37333D02*
X3314Y36872D01*
X1733D01*
X2047Y37772D01*
X3314D01*
X3599Y37333D01*
D02*
G37*
G36*
Y32758D02*
X3314Y32297D01*
X1733D01*
X2047Y33197D01*
X3314D01*
X3599Y32758D01*
D02*
G37*
G36*
X2069Y35173D02*
Y33256D01*
X1718Y32472D01*
X1425Y33256D01*
X1418Y35173D01*
X1438Y35225D01*
X1440D01*
X1450Y35256D01*
X1718Y35957D01*
X2069Y35173D01*
D02*
G37*
G36*
X3951Y35181D02*
Y33248D01*
X3621Y32809D01*
X3314Y33248D01*
Y35181D01*
X3621Y35620D01*
X3951Y35181D01*
D02*
G37*
G36*
X137D02*
Y33256D01*
X-178Y32809D01*
X-500Y33248D01*
Y35181D01*
X-178Y35620D01*
X137Y35181D01*
D02*
G37*
%LPC*%
G36*
X-4744Y22314D02*
X-4763Y22258D01*
X-4748Y22246D01*
X-4733D01*
X-4744Y22314D01*
D02*
G37*
%LPD*%
D10*
X46944Y56157D02*
G03*
X44056Y56157I-1444J0D01*
G01*
X46944Y-5843D02*
G03*
X44056Y-5843I-1444J0D01*
G01*
X157014Y74500D02*
G03*
X150986Y74500I-3014J0D01*
G01*
Y64500D02*
G03*
X157014Y64500I3014J0D01*
G01*
X140831Y74500D02*
G03*
X134802Y74500I-3014J0D01*
G01*
Y64500D02*
G03*
X140831Y64500I3014J0D01*
G01*
X124647Y74500D02*
G03*
X118619Y74500I-3014J0D01*
G01*
Y64500D02*
G03*
X124647Y64500I3014J0D01*
G01*
X12500Y1500D02*
Y61500D01*
X22500Y1500D02*
Y61500D01*
X12500D02*
X22500D01*
X12500Y1500D02*
X22500D01*
X41169Y56157D02*
Y75842D01*
X49831Y56157D02*
Y75842D01*
X41169D02*
X49831D01*
X41169Y56157D02*
X44056D01*
X46944D02*
X49831D01*
X122547Y19843D02*
Y20040D01*
X115460Y19843D02*
Y20040D01*
X122547Y7835D02*
Y8032D01*
X115460Y7835D02*
Y8032D01*
Y7835D02*
X122547D01*
X115460Y20040D02*
X122547D01*
X41169Y-5843D02*
Y13842D01*
X49831Y-5843D02*
Y13842D01*
X41169D02*
X49831D01*
X41169Y-5843D02*
X44056D01*
X46944D02*
X49831D01*
X74779Y23779D02*
Y46220D01*
X97220Y23779D02*
Y46220D01*
X74779D02*
X97220D01*
X74779Y23779D02*
X97220D01*
X157000Y64500D02*
Y74500D01*
X151000Y64500D02*
Y74500D01*
X140816Y64500D02*
Y74500D01*
X134817Y64500D02*
Y74500D01*
X124633Y64500D02*
Y74500D01*
X118633Y64500D02*
Y74500D01*
D11*
X56228Y55154D02*
G03*
X56228Y55154I-492J0D01*
G01*
Y-6847D02*
G03*
X56228Y-6847I-492J0D01*
G01*
D12*
X124319Y7933D02*
G03*
X124319Y7933I-197J0D01*
G01*
D13*
X79898Y42283D02*
G03*
X79898Y42283I-1181J0D01*
G01*
D14*
X109400Y6000D02*
X135600D01*
X109400Y-9000D02*
X135600D01*
X109400D02*
Y6000D01*
X135600Y-9000D02*
Y6000D01*
X139250Y-5000D02*
X159700D01*
X139350Y4100D02*
X159700D01*
Y-5000D02*
Y4100D01*
X138000Y-3750D02*
X139250Y-5000D01*
X138000Y-3750D02*
Y2750D01*
X139350Y4100D01*
D15*
X130500Y13000D02*
X134500D01*
X91000Y-9417D02*
Y-5874D01*
X81000Y-9417D02*
Y-5874D01*
X91000D01*
X66000Y-9417D02*
X106000D01*
X66000D02*
Y13417D01*
X106000D01*
Y-9417D02*
Y13417D01*
X66000Y56583D02*
Y79417D01*
Y56583D02*
X106000D01*
Y79417D01*
X66000D02*
X106000D01*
X81000Y75874D02*
X91000D01*
Y79417D01*
X81000Y75874D02*
Y79417D01*
X146765Y-3500D02*
Y2500D01*
X146750Y-500D02*
X149750Y-3500D01*
X146750Y-500D02*
X149750Y2500D01*
Y-3500D02*
Y2500D01*
X146750Y-500D02*
X150750D01*
X114000Y42800D02*
X118000D01*
X114000Y28200D02*
X118000D01*
X35500Y22400D02*
Y26400D01*
Y43600D02*
Y47600D01*
D16*
X135500Y6800D02*
Y19200D01*
X129500Y6800D02*
X135500D01*
X129500D02*
Y19200D01*
X135500D01*
X43600Y21400D02*
X57100D01*
Y48600D01*
X43600D02*
X57100D01*
X43600Y21400D02*
Y48600D01*
X120300Y43000D02*
Y49000D01*
Y43000D02*
X132700D01*
Y49000D01*
X120300D02*
X132700D01*
Y29000D02*
Y35000D01*
X120300D02*
X132700D01*
X120300Y29000D02*
Y35000D01*
Y29000D02*
X132700D01*
X120300Y36000D02*
Y42000D01*
Y36000D02*
X132700D01*
Y42000D01*
X120300D02*
X132700D01*
X120300Y22000D02*
Y28000D01*
Y22000D02*
X132700D01*
Y28000D01*
X120300D02*
X132700D01*
X143000Y75700D02*
X149000D01*
X143000Y63300D02*
Y75700D01*
Y63300D02*
X149000D01*
Y75700D01*
X126750D02*
X132750D01*
X126750Y63300D02*
Y75700D01*
Y63300D02*
X132750D01*
Y75700D01*
X110500D02*
X116500D01*
X110500Y63300D02*
Y75700D01*
Y63300D02*
X116500D01*
Y75700D01*
X154000Y62000D02*
Y64000D01*
X153000Y63000D02*
X155000D01*
X137817Y62000D02*
Y64000D01*
X136817Y63000D02*
X138816D01*
X121633Y62000D02*
Y64000D01*
X120633Y63000D02*
X122633D01*
X113000Y36600D02*
Y49000D01*
X119000D01*
Y36600D02*
Y49000D01*
X113000Y36600D02*
X119000D01*
X113000Y22000D02*
Y34400D01*
X119000D01*
Y22000D02*
Y34400D01*
X113000Y22000D02*
X119000D01*
X29300Y27400D02*
X41700D01*
Y21400D02*
Y27400D01*
X29300Y21400D02*
X41700D01*
X29300D02*
Y27400D01*
Y48600D02*
X41700D01*
Y42600D02*
Y48600D01*
X29300Y42600D02*
X41700D01*
X29300D02*
Y48600D01*
X122214Y928D02*
X121999Y1356D01*
X121571Y1785D01*
X121142Y1999D01*
X120285D01*
X119857Y1785D01*
X119429Y1356D01*
X119214Y928D01*
X119000Y285D01*
Y-786D01*
X119214Y-1429D01*
X119429Y-1857D01*
X119857Y-2286D01*
X120285Y-2500D01*
X121142D01*
X121571Y-2286D01*
X121999Y-1857D01*
X122214Y-1429D01*
X123692Y928D02*
Y1142D01*
X123906Y1571D01*
X124120Y1785D01*
X124549Y1999D01*
X125406D01*
X125834Y1785D01*
X126049Y1571D01*
X126263Y1142D01*
Y714D01*
X126049Y285D01*
X125620Y-358D01*
X123478Y-2500D01*
X126477D01*
X140928Y11786D02*
X141356Y12001D01*
X141785Y12429D01*
X141999Y12858D01*
Y13715D01*
X141785Y14143D01*
X141356Y14571D01*
X140928Y14786D01*
X140285Y15000D01*
X139214D01*
X138571Y14786D01*
X138143Y14571D01*
X137714Y14143D01*
X137500Y13715D01*
Y12858D01*
X137714Y12429D01*
X138143Y12001D01*
X138571Y11786D01*
X141142Y10522D02*
X141356Y10094D01*
X141999Y9451D01*
X137500D01*
X21850Y-3992D02*
X19922D01*
X19279Y-4207D01*
X19065Y-4421D01*
X18851Y-4849D01*
Y-5492D01*
X19065Y-5921D01*
X19279Y-6135D01*
X19922Y-6349D01*
X21850D01*
Y-1850D01*
X17844Y-5492D02*
X17415Y-5706D01*
X16772Y-6349D01*
Y-1850D01*
X46000Y39499D02*
X48999Y35000D01*
Y39499D02*
X46000Y35000D01*
X51506Y39499D02*
Y35000D01*
X50006Y39499D02*
X53006D01*
X53541Y38642D02*
X53970Y38856D01*
X54612Y39499D01*
Y35000D01*
X47499Y69000D02*
X44285D01*
X43643Y68786D01*
X43214Y68357D01*
X43000Y67715D01*
Y67286D01*
X43214Y66643D01*
X43643Y66215D01*
X44285Y66001D01*
X47499D01*
X46428Y64544D02*
X46642D01*
X47071Y64330D01*
X47285Y64115D01*
X47499Y63687D01*
Y62830D01*
X47285Y62401D01*
X47071Y62187D01*
X46642Y61973D01*
X46214D01*
X45785Y62187D01*
X45142Y62616D01*
X43000Y64758D01*
Y61759D01*
X116501Y10500D02*
X119715D01*
X120357Y10714D01*
X120786Y11143D01*
X121000Y11785D01*
Y12214D01*
X120786Y12857D01*
X120357Y13285D01*
X119715Y13499D01*
X116501D01*
X117358Y14742D02*
X117144Y15170D01*
X116501Y15813D01*
X121000D01*
X47999Y5500D02*
X44785D01*
X44143Y5286D01*
X43714Y4857D01*
X43500Y4215D01*
Y3786D01*
X43714Y3143D01*
X44143Y2715D01*
X44785Y2501D01*
X47999D01*
Y830D02*
Y-1527D01*
X46285Y-242D01*
Y-884D01*
X46071Y-1313D01*
X45857Y-1527D01*
X45214Y-1741D01*
X44785D01*
X44143Y-1527D01*
X43714Y-1099D01*
X43500Y-456D01*
Y187D01*
X43714Y830D01*
X43929Y1044D01*
X44357Y1258D01*
X81999Y34856D02*
X81571Y35285D01*
X80928Y35499D01*
X80071D01*
X79428Y35285D01*
X79000Y34856D01*
Y34428D01*
X79214Y33999D01*
X79428Y33785D01*
X79857Y33571D01*
X81142Y33142D01*
X81571Y32928D01*
X81785Y32714D01*
X81999Y32285D01*
Y31643D01*
X81571Y31214D01*
X80928Y31000D01*
X80071D01*
X79428Y31214D01*
X79000Y31643D01*
X84506Y35499D02*
Y31000D01*
X83006Y35499D02*
X86006D01*
X86541D02*
Y31000D01*
Y35499D02*
X88255Y31000D01*
X89969Y35499D02*
X88255Y31000D01*
X89969Y35499D02*
Y31000D01*
X91255Y34642D02*
X91683Y34856D01*
X92326Y35499D01*
Y31000D01*
X134500Y48499D02*
Y44000D01*
Y48499D02*
X136428D01*
X137071Y48285D01*
X137285Y48071D01*
X137499Y47642D01*
Y47214D01*
X137285Y46785D01*
X137071Y46571D01*
X136428Y46357D01*
X134500D01*
X136000D02*
X137499Y44000D01*
X138506Y47642D02*
X138935Y47856D01*
X139577Y48499D01*
Y44000D01*
X141806Y47642D02*
X142234Y47856D01*
X142877Y48499D01*
Y44000D01*
X135000Y33999D02*
Y29500D01*
Y33999D02*
X136928D01*
X137571Y33785D01*
X137785Y33571D01*
X137999Y33142D01*
Y32714D01*
X137785Y32285D01*
X137571Y32071D01*
X136928Y31857D01*
X135000D01*
X136500D02*
X137999Y29500D01*
X139006Y33142D02*
X139435Y33356D01*
X140077Y33999D01*
Y29500D01*
X143591Y33999D02*
X142948Y33785D01*
X142520Y33142D01*
X142306Y32071D01*
Y31428D01*
X142520Y30357D01*
X142948Y29714D01*
X143591Y29500D01*
X144019D01*
X144662Y29714D01*
X145091Y30357D01*
X145305Y31428D01*
Y32071D01*
X145091Y33142D01*
X144662Y33785D01*
X144019Y33999D01*
X143591D01*
X135000Y40999D02*
Y36500D01*
Y40999D02*
X136928D01*
X137571Y40785D01*
X137785Y40571D01*
X137999Y40142D01*
Y39714D01*
X137785Y39285D01*
X137571Y39071D01*
X136928Y38857D01*
X135000D01*
X136500D02*
X137999Y36500D01*
X141791Y39499D02*
X141577Y38857D01*
X141149Y38428D01*
X140506Y38214D01*
X140292D01*
X139649Y38428D01*
X139220Y38857D01*
X139006Y39499D01*
Y39714D01*
X139220Y40356D01*
X139649Y40785D01*
X140292Y40999D01*
X140506D01*
X141149Y40785D01*
X141577Y40356D01*
X141791Y39499D01*
Y38428D01*
X141577Y37357D01*
X141149Y36714D01*
X140506Y36500D01*
X140077D01*
X139435Y36714D01*
X139220Y37143D01*
X135500Y27999D02*
Y23500D01*
Y27999D02*
X137428D01*
X138071Y27785D01*
X138285Y27571D01*
X138499Y27142D01*
Y26714D01*
X138285Y26285D01*
X138071Y26071D01*
X137428Y25857D01*
X135500D01*
X137000D02*
X138499Y23500D01*
X140577Y27999D02*
X139935Y27785D01*
X139720Y27356D01*
Y26928D01*
X139935Y26499D01*
X140363Y26285D01*
X141220Y26071D01*
X141863Y25857D01*
X142291Y25428D01*
X142506Y25000D01*
Y24357D01*
X142291Y23929D01*
X142077Y23714D01*
X141434Y23500D01*
X140577D01*
X139935Y23714D01*
X139720Y23929D01*
X139506Y24357D01*
Y25000D01*
X139720Y25428D01*
X140149Y25857D01*
X140792Y26071D01*
X141649Y26285D01*
X142077Y26499D01*
X142291Y26928D01*
Y27356D01*
X142077Y27785D01*
X141434Y27999D01*
X140577D01*
X144501Y54500D02*
X149000D01*
X144501D02*
Y56428D01*
X144715Y57071D01*
X144929Y57285D01*
X145358Y57499D01*
X145786D01*
X146215Y57285D01*
X146429Y57071D01*
X146643Y56428D01*
Y54500D01*
Y56000D02*
X149000Y57499D01*
X144501Y61506D02*
X149000Y59363D01*
X144501Y58506D02*
Y61506D01*
X127501Y55500D02*
X132000D01*
X127501D02*
Y57428D01*
X127715Y58071D01*
X127929Y58285D01*
X128358Y58499D01*
X128786D01*
X129215Y58285D01*
X129429Y58071D01*
X129643Y57428D01*
Y55500D01*
Y57000D02*
X132000Y58499D01*
X128144Y62077D02*
X127715Y61863D01*
X127501Y61220D01*
Y60792D01*
X127715Y60149D01*
X128358Y59720D01*
X129429Y59506D01*
X130500D01*
X131357Y59720D01*
X131786Y60149D01*
X132000Y60792D01*
Y61006D01*
X131786Y61649D01*
X131357Y62077D01*
X130715Y62291D01*
X130500D01*
X129858Y62077D01*
X129429Y61649D01*
X129215Y61006D01*
Y60792D01*
X129429Y60149D01*
X129858Y59720D01*
X130500Y59506D01*
X111501Y54500D02*
X116000D01*
X111501D02*
Y56428D01*
X111715Y57071D01*
X111929Y57285D01*
X112358Y57499D01*
X112786D01*
X113215Y57285D01*
X113429Y57071D01*
X113643Y56428D01*
Y54500D01*
Y56000D02*
X116000Y57499D01*
X111501Y61077D02*
Y58935D01*
X113429Y58720D01*
X113215Y58935D01*
X113001Y59578D01*
Y60220D01*
X113215Y60863D01*
X113643Y61291D01*
X114286Y61506D01*
X114715D01*
X115357Y61291D01*
X115786Y60863D01*
X116000Y60220D01*
Y59578D01*
X115786Y58935D01*
X115571Y58720D01*
X115143Y58506D01*
X70500Y9142D02*
X72428D01*
X73071Y9357D01*
X73285Y9571D01*
X73499Y9999D01*
Y10642D01*
X73285Y11071D01*
X73071Y11285D01*
X72428Y11499D01*
X70500D01*
Y7000D01*
X74935Y11499D02*
X77291D01*
X76006Y9785D01*
X76649D01*
X77077Y9571D01*
X77291Y9357D01*
X77506Y8714D01*
Y8285D01*
X77291Y7643D01*
X76863Y7214D01*
X76220Y7000D01*
X75577D01*
X74935Y7214D01*
X74721Y7429D01*
X74506Y7857D01*
X91500Y67642D02*
X93428D01*
X94071Y67857D01*
X94285Y68071D01*
X94499Y68499D01*
Y69142D01*
X94285Y69571D01*
X94071Y69785D01*
X93428Y69999D01*
X91500D01*
Y65500D01*
X95720Y68928D02*
Y69142D01*
X95935Y69571D01*
X96149Y69785D01*
X96578Y69999D01*
X97434D01*
X97863Y69785D01*
X98077Y69571D01*
X98291Y69142D01*
Y68714D01*
X98077Y68285D01*
X97649Y67642D01*
X95506Y65500D01*
X98506D01*
X166001Y37000D02*
X170500D01*
Y39571D01*
X166001Y42849D02*
Y40064D01*
X170500D01*
Y42849D01*
X168143Y40064D02*
Y41778D01*
X166001Y43599D02*
X170500D01*
X166001D02*
Y45098D01*
X166215Y45741D01*
X166644Y46169D01*
X167072Y46384D01*
X167715Y46598D01*
X168786D01*
X169429Y46384D01*
X169857Y46169D01*
X170286Y45741D01*
X170500Y45098D01*
Y43599D01*
X166001Y48033D02*
Y50390D01*
X167715Y49105D01*
Y49747D01*
X167929Y50176D01*
X168143Y50390D01*
X168786Y50604D01*
X169215D01*
X169857Y50390D01*
X170286Y49962D01*
X170500Y49319D01*
Y48676D01*
X170286Y48033D01*
X170071Y47819D01*
X169643Y47605D01*
X158501Y37000D02*
X163000D01*
Y39571D01*
X158501Y42849D02*
Y40064D01*
X163000D01*
Y42849D01*
X160643Y40064D02*
Y41778D01*
X158501Y43599D02*
X163000D01*
X158501D02*
Y45098D01*
X158715Y45741D01*
X159144Y46169D01*
X159572Y46384D01*
X160215Y46598D01*
X161286D01*
X161929Y46384D01*
X162357Y46169D01*
X162786Y45741D01*
X163000Y45098D01*
Y43599D01*
X159572Y47819D02*
X159358D01*
X158929Y48033D01*
X158715Y48248D01*
X158501Y48676D01*
Y49533D01*
X158715Y49962D01*
X158929Y50176D01*
X159358Y50390D01*
X159786D01*
X160215Y50176D01*
X160858Y49747D01*
X163000Y47605D01*
Y50604D01*
X150501Y37000D02*
X155000D01*
Y39571D01*
X150501Y42849D02*
Y40064D01*
X155000D01*
Y42849D01*
X152643Y40064D02*
Y41778D01*
X150501Y43599D02*
X155000D01*
X150501D02*
Y45098D01*
X150715Y45741D01*
X151144Y46169D01*
X151572Y46384D01*
X152215Y46598D01*
X153286D01*
X153929Y46384D01*
X154357Y46169D01*
X154786Y45741D01*
X155000Y45098D01*
Y43599D01*
X151358Y47605D02*
X151144Y48033D01*
X150501Y48676D01*
X155000D01*
X165642Y26499D02*
Y23071D01*
X165428Y22429D01*
X165214Y22214D01*
X164785Y22000D01*
X164357D01*
X163928Y22214D01*
X163714Y22429D01*
X163500Y23071D01*
Y23500D01*
X166799Y25642D02*
X167228Y25856D01*
X167870Y26499D01*
Y22000D01*
X151000Y10999D02*
Y6500D01*
Y10999D02*
X152500D01*
X153142Y10785D01*
X153571Y10356D01*
X153785Y9928D01*
X153999Y9285D01*
Y8214D01*
X153785Y7571D01*
X153571Y7143D01*
X153142Y6714D01*
X152500Y6500D01*
X151000D01*
X155220Y9928D02*
Y10142D01*
X155435Y10571D01*
X155649Y10785D01*
X156078Y10999D01*
X156934D01*
X157363Y10785D01*
X157577Y10571D01*
X157791Y10142D01*
Y9714D01*
X157577Y9285D01*
X157149Y8642D01*
X155006Y6500D01*
X158006D01*
X106572Y41714D02*
X106144Y41499D01*
X105715Y41071D01*
X105501Y40642D01*
Y39785D01*
X105715Y39357D01*
X106144Y38928D01*
X106572Y38714D01*
X107215Y38500D01*
X108286D01*
X108929Y38714D01*
X109357Y38928D01*
X109786Y39357D01*
X110000Y39785D01*
Y40642D01*
X109786Y41071D01*
X109357Y41499D01*
X108929Y41714D01*
X106358Y42978D02*
X106144Y43406D01*
X105501Y44049D01*
X110000D01*
X105501Y48419D02*
X108500Y46277D01*
Y49490D01*
X105501Y48419D02*
X110000D01*
X107072Y25714D02*
X106644Y25499D01*
X106215Y25071D01*
X106001Y24642D01*
Y23785D01*
X106215Y23357D01*
X106644Y22929D01*
X107072Y22714D01*
X107715Y22500D01*
X108786D01*
X109429Y22714D01*
X109857Y22929D01*
X110286Y23357D01*
X110500Y23785D01*
Y24642D01*
X110286Y25071D01*
X109857Y25499D01*
X109429Y25714D01*
X106858Y26978D02*
X106644Y27406D01*
X106001Y28049D01*
X110500D01*
X106001Y30705D02*
Y33062D01*
X107715Y31777D01*
Y32419D01*
X107929Y32848D01*
X108143Y33062D01*
X108786Y33276D01*
X109215D01*
X109857Y33062D01*
X110286Y32634D01*
X110500Y31991D01*
Y31348D01*
X110286Y30705D01*
X110072Y30491D01*
X109643Y30277D01*
X35214Y32428D02*
X34999Y32856D01*
X34571Y33285D01*
X34142Y33499D01*
X33285D01*
X32857Y33285D01*
X32429Y32856D01*
X32214Y32428D01*
X32000Y31785D01*
Y30714D01*
X32214Y30071D01*
X32429Y29643D01*
X32857Y29214D01*
X33285Y29000D01*
X34142D01*
X34571Y29214D01*
X34999Y29643D01*
X35214Y30071D01*
X37549Y33499D02*
X36906Y33285D01*
X36692Y32856D01*
Y32428D01*
X36906Y31999D01*
X37335Y31785D01*
X38192Y31571D01*
X38834Y31357D01*
X39263Y30928D01*
X39477Y30500D01*
Y29857D01*
X39263Y29428D01*
X39048Y29214D01*
X38406Y29000D01*
X37549D01*
X36906Y29214D01*
X36692Y29428D01*
X36478Y29857D01*
Y30500D01*
X36692Y30928D01*
X37120Y31357D01*
X37763Y31571D01*
X38620Y31785D01*
X39048Y31999D01*
X39263Y32428D01*
Y32856D01*
X39048Y33285D01*
X38406Y33499D01*
X37549D01*
X35214Y54428D02*
X34999Y54856D01*
X34571Y55285D01*
X34142Y55499D01*
X33285D01*
X32857Y55285D01*
X32429Y54856D01*
X32214Y54428D01*
X32000Y53785D01*
Y52714D01*
X32214Y52071D01*
X32429Y51643D01*
X32857Y51214D01*
X33285Y51000D01*
X34142D01*
X34571Y51214D01*
X34999Y51643D01*
X35214Y52071D01*
X39477Y55499D02*
X37335Y51000D01*
X36478Y55499D02*
X39477D01*
D17*
X151768Y17323D02*
X161610D01*
X172988Y52756D02*
X179720D01*
Y17323D02*
Y52756D01*
X172988Y17323D02*
X179720D01*
X176374D02*
Y52756D01*
X151768D02*
X161610D01*
X140941Y43150D02*
Y47244D01*
Y22244D02*
Y26575D01*
X176374Y17323D02*
Y52756D01*
X140941Y43150D02*
Y47244D01*
Y22244D02*
Y26575D01*
X151768Y52756D02*
X161610D01*
X172988D02*
X179130D01*
X172988Y17323D02*
X179130D01*
X151768D02*
X161610D01*
M02*
